<svg version="1.1" id="Layer_1" xmlns="http://www.w3.org/2000/svg" xmlns:xlink="http://www.w3.org/1999/xlink" x="0px" y="0px"
	 width="100%" viewBox="0 0 2500 1406" enable-background="new 0 0 2500 1406" xml:space="preserve">
<path fill="#0F1822" opacity="1.000000" stroke="none" 
	d="
M1632.000000,1407.000000 
	C1088.000000,1407.000000 544.500000,1407.000000 1.000000,1407.000000 
	C1.000000,938.333313 1.000000,469.666656 1.000000,1.000000 
	C834.333313,1.000000 1667.666626,1.000000 2501.000000,1.000000 
	C2501.000000,469.666656 2501.000000,938.333313 2501.000000,1407.000000 
	C2211.500000,1407.000000 1922.000000,1407.000000 1632.000000,1407.000000 
M1456.779175,867.112061 
	C1471.973755,886.106567 1487.543945,904.818115 1502.170410,924.240417 
	C1507.708252,931.593872 1513.519897,934.840637 1522.633057,933.958435 
	C1527.308105,933.505920 1528.884277,932.511047 1528.844849,927.661499 
	C1528.630859,901.335266 1528.743286,875.006287 1528.743286,848.678284 
	C1528.743408,835.342957 1528.743530,835.478027 1515.204468,835.495911 
	C1511.278198,835.501099 1510.036377,836.692566 1510.073364,840.650696 
	C1510.250854,859.645203 1510.152222,878.642334 1510.151733,897.638489 
	C1510.151733,899.321777 1510.151855,901.005127 1510.151855,902.688416 
	C1493.846191,883.811829 1478.256348,865.129272 1463.693115,845.678040 
	C1457.854736,837.880005 1451.696167,834.226074 1442.037842,835.408630 
	C1438.101440,835.890564 1436.455933,836.623230 1436.549683,840.864502 
	C1436.792725,851.856873 1437.080566,862.882935 1436.477661,873.847595 
	C1436.054321,881.544495 1437.961792,887.711609 1443.338745,893.221130 
	C1447.082031,897.056763 1450.163940,901.537903 1453.541260,905.730652 
	C1454.127441,905.534424 1454.713501,905.338196 1455.299683,905.142029 
	C1455.299683,892.598267 1455.299683,880.054504 1455.743652,867.174805 
	C1455.885864,867.055725 1456.028198,866.936584 1456.779175,867.112061 
M1301.691406,743.798218 
	C1227.390015,650.921326 1153.095581,558.038879 1078.729858,465.213654 
	C1077.432251,463.593872 1075.275513,462.662323 1073.519531,461.409607 
	C1073.047241,463.409912 1072.166016,465.409485 1072.162476,467.410675 
	C1072.083984,511.395538 1072.006348,555.381226 1072.272949,599.364563 
	C1072.296021,603.176758 1073.800415,607.699280 1076.156860,610.670410 
	C1112.800171,656.872986 1149.728149,702.849609 1186.484741,748.962708 
	C1189.781494,753.098694 1193.482666,755.001160 1198.834717,754.977478 
	C1233.155640,754.825378 1267.477661,754.900085 1301.799316,754.899963 
	C1302.632324,754.899963 1303.516968,755.074646 1304.286499,754.852783 
	C1305.473389,754.510559 1307.212646,754.153320 1307.550781,753.325745 
	C1307.909668,752.447144 1307.129639,750.863647 1306.452148,749.852539 
	C1305.158569,747.922119 1303.584717,746.179443 1301.691406,743.798218 
M1386.875000,510.334045 
	C1349.835571,556.644165 1312.788696,602.948303 1275.794434,649.294495 
	C1274.736694,650.619507 1274.237793,652.390747 1273.478394,653.953979 
	C1275.271240,654.495667 1277.062988,655.505005 1278.857300,655.509827 
	C1313.510254,655.603271 1348.163818,655.535583 1382.816895,655.628296 
	C1387.718018,655.641418 1391.331787,654.012634 1394.396240,650.100830 
	C1404.873413,636.726562 1415.722412,623.641052 1426.062134,610.163513 
	C1428.118286,607.483521 1429.559570,603.562012 1429.576904,600.204224 
	C1429.806152,555.722473 1429.749268,511.239197 1429.661621,466.756470 
	C1429.658081,464.961395 1428.643921,463.168274 1428.100830,461.374207 
	C1426.578247,462.421204 1424.702393,463.182159 1423.587402,464.559143 
	C1411.427490,479.575409 1399.386475,494.688019 1386.875000,510.334045 
M1251.130127,887.499939 
	C1251.130127,898.659119 1251.130127,909.818237 1251.130127,920.977417 
	C1251.130127,933.851868 1251.134277,933.626465 1264.024902,933.864929 
	C1268.917236,933.955383 1269.817749,932.072205 1269.785034,927.715942 
	C1269.613037,904.732727 1269.698730,881.747559 1269.714844,858.763062 
	C1269.716064,856.995239 1269.868896,855.227539 1269.957275,853.329712 
	C1283.794556,853.329712 1297.177124,853.329712 1311.263184,853.329712 
	C1309.977539,855.106506 1309.100586,856.426086 1308.117065,857.660828 
	C1300.439087,867.299438 1292.821167,876.988037 1284.994873,886.505188 
	C1282.898926,889.054077 1282.914795,890.793701 1285.009277,893.350281 
	C1293.979126,904.298767 1303.058594,915.183777 1311.445312,926.572693 
	C1315.575073,932.180847 1320.110840,934.669250 1326.975586,933.840698 
	C1331.080444,933.345276 1335.293945,933.749756 1339.458618,933.749756 
	C1339.562744,933.241211 1339.666870,932.732666 1339.770996,932.224121 
	C1328.533569,918.105957 1317.296143,903.987732 1306.066650,889.879700 
	C1310.514160,884.319153 1314.095337,878.761658 1318.720825,874.282898 
	C1328.422974,864.888611 1332.050659,853.898376 1330.391235,840.595093 
	C1329.916626,836.790222 1329.203125,835.472717 1325.241333,835.500916 
	C1302.258057,835.664551 1279.272095,835.679138 1256.289185,835.492859 
	C1251.962280,835.457764 1251.004517,837.055237 1251.054077,841.031555 
	C1251.243164,856.185608 1251.130249,871.343445 1251.130127,887.499939 
M1223.351318,916.876648 
	C1224.053589,915.947632 1224.792236,915.043884 1225.452393,914.085876 
	C1238.707520,894.850708 1237.701782,869.749573 1222.968750,851.863525 
	C1208.395996,834.171997 1183.806396,828.209900 1162.802856,837.275391 
	C1141.629028,846.414429 1128.827271,868.518616 1132.243774,891.540222 
	C1135.385620,912.710815 1147.509277,927.380249 1167.926514,933.655457 
	C1189.372192,940.246643 1207.950562,934.260132 1223.351318,916.876648 
M989.558350,885.015991 
	C976.944641,900.796387 964.330933,916.576721 951.717163,932.357056 
	C951.922852,932.821289 952.128540,933.285461 952.334229,933.749695 
	C957.242920,933.749695 962.177734,933.433533 967.053284,933.835754 
	C972.263000,934.265503 975.704224,932.380737 978.837341,928.219177 
	C986.103149,918.568176 993.834534,909.267700 1001.697571,899.423950 
	C1008.395386,907.799988 1015.370728,915.282898 1020.855530,923.733215 
	C1026.267700,932.071594 1033.039307,935.303955 1042.533813,933.759277 
	C1043.020630,933.680115 1043.532471,933.719971 1044.030151,933.748596 
	C1046.821777,933.909180 1047.833862,932.542603 1047.829956,929.824524 
	C1047.786865,899.696411 1047.824097,869.568115 1047.728516,839.440247 
	C1047.724609,838.219360 1046.926025,836.317993 1045.978638,835.894226 
	C1039.971680,833.207153 1028.449463,836.331970 1024.279663,841.544250 
	C1012.843567,855.839661 1001.425171,870.149353 989.558350,885.015991 
M1388.507568,915.058899 
	C1392.610962,909.943970 1396.714355,904.828979 1401.037231,899.440430 
	C1409.466187,909.988586 1417.326294,919.902649 1425.302002,929.722656 
	C1426.512085,931.212402 1428.203491,933.257385 1429.770264,933.347900 
	C1436.648071,933.745422 1443.561890,933.519226 1451.626343,933.519226 
	C1449.841431,931.109619 1448.838013,929.661743 1447.741333,928.288452 
	C1425.707275,900.699280 1403.350586,873.358459 1381.825195,845.378235 
	C1375.969360,837.766296 1369.961182,834.358826 1360.528809,835.394409 
	C1356.328613,835.855530 1354.853271,836.608887 1354.887451,841.084778 
	C1355.092041,867.901917 1354.988647,894.721436 1354.988525,921.540161 
	C1354.988525,933.771729 1354.991821,933.597046 1367.401489,933.839600 
	C1371.869141,933.927002 1374.936401,932.586609 1377.518433,928.929932 
	C1380.778931,924.312622 1384.524414,920.037720 1388.507568,915.058899 
M908.762939,933.743896 
	C911.095398,933.743896 913.440186,933.591370 915.757446,933.778992 
	C919.413391,934.074951 921.967773,932.740906 924.290649,929.817505 
	C948.125244,899.820801 972.081665,869.920776 995.984741,839.978455 
	C996.833801,838.914978 997.482605,837.691772 998.841858,835.587585 
	C992.420654,835.587585 987.123901,835.823486 981.859314,835.513367 
	C977.598633,835.262451 974.780518,836.747986 972.125244,840.120361 
	C956.565491,859.882812 940.793518,879.478271 925.079407,899.119019 
	C924.036499,900.422485 922.879639,901.634888 921.461609,903.246643 
	C921.162781,902.040344 921.018433,901.729065 921.018127,901.417603 
	C920.998352,883.757324 920.988098,866.097046 920.982422,848.436768 
	C920.978210,835.429382 920.980225,835.596252 907.752686,835.491333 
	C903.499023,835.457703 902.419495,836.918091 902.438843,840.961243 
	C902.578613,870.116882 902.581909,899.273865 902.437073,928.429443 
	C902.416565,932.567871 903.698303,934.354614 908.762939,933.743896 
M1587.452637,874.500610 
	C1587.452637,867.537720 1587.452637,860.574829 1587.452637,852.896118 
	C1598.781616,852.896118 1609.631104,852.896118 1621.875244,852.896118 
	C1617.707031,847.652283 1614.301880,843.633057 1611.209839,839.385925 
	C1609.130981,836.530701 1606.642700,835.495850 1603.142700,835.524170 
	C1586.479248,835.658630 1569.813965,835.583496 1553.149414,835.583191 
	C1541.222168,835.583008 1541.458862,835.588318 1541.205933,847.397339 
	C1541.102295,852.232910 1542.857788,853.355164 1547.291016,853.155029 
	C1554.377686,852.834961 1561.489624,853.069336 1568.981445,853.069336 
	C1568.981445,855.561462 1568.980225,857.366333 1568.981689,859.171143 
	C1568.997925,879.835205 1568.992554,900.499268 1569.038696,921.163269 
	C1569.066895,933.805420 1569.105835,933.618958 1581.600464,933.845520 
	C1586.125244,933.927551 1587.689087,932.707275 1587.615112,927.992004 
	C1587.340698,910.498291 1587.472900,892.998291 1587.452637,874.500610 
M1127.223022,921.822327 
	C1128.331543,920.292236 1129.440186,918.762085 1131.374390,916.092407 
	C1116.174561,916.092407 1102.353027,916.092407 1088.222290,916.092407 
	C1088.222290,913.370728 1088.222290,911.385742 1088.222168,909.400696 
	C1088.221558,886.432983 1088.273926,863.464966 1088.108765,840.498413 
	C1088.096924,838.866333 1086.612793,835.937927 1085.599609,835.840759 
	C1080.553833,835.357300 1075.436523,835.619934 1070.390503,835.619934 
	C1070.134277,837.055176 1069.918945,837.699890 1069.918457,838.344788 
	C1069.894409,868.801880 1069.931274,899.259033 1069.824585,929.715820 
	C1069.812134,933.271179 1071.509521,933.805847 1074.443115,933.776733 
	C1083.928833,933.682739 1093.485718,933.023376 1102.884277,933.933838 
	C1113.614868,934.973328 1121.663696,932.119019 1127.223022,921.822327 
M1611.074707,931.507019 
	C1611.862183,931.322998 1612.649658,931.139038 1613.957275,930.833557 
	C1614.302246,931.197937 1615.142822,932.086060 1616.024536,933.017517 
	C1616.925781,932.029724 1617.672485,931.211426 1618.436646,930.373840 
	C1619.151367,931.240112 1619.760132,931.977905 1620.450439,932.814697 
	C1620.450439,929.841370 1620.450439,927.311523 1620.450439,924.781677 
	C1620.098389,924.674805 1619.746338,924.567993 1619.394287,924.461182 
	C1618.381592,926.328247 1617.368774,928.195251 1616.141235,930.457947 
	C1614.665405,928.156189 1613.468018,926.288757 1612.270630,924.421265 
	C1611.867554,924.583923 1611.464600,924.746582 1611.061523,924.909241 
	C1611.061523,926.868286 1611.061523,928.827332 1611.074707,931.507019 
M1606.261353,924.344421 
	C1605.328247,924.344421 1604.395142,924.344421 1604.206543,924.344421 
	C1604.753296,927.321228 1605.239868,929.969788 1605.766357,932.835754 
	C1606.653442,929.919128 1607.465942,927.247498 1608.278687,924.575867 
	C1607.806763,924.494385 1607.334717,924.412903 1606.261353,924.344421 
z"/>
<path fill="#FE4654" opacity="1.000000" stroke="none" 
	d="
M1301.909302,744.078491 
	C1303.584717,746.179443 1305.158569,747.922119 1306.452148,749.852539 
	C1307.129639,750.863647 1307.909668,752.447144 1307.550781,753.325745 
	C1307.212646,754.153320 1305.473389,754.510559 1304.286499,754.852783 
	C1303.516968,755.074646 1302.632324,754.899963 1301.799316,754.899963 
	C1267.477661,754.900085 1233.155640,754.825378 1198.834717,754.977478 
	C1193.482666,755.001160 1189.781494,753.098694 1186.484741,748.962708 
	C1149.728149,702.849609 1112.800171,656.872986 1076.156860,610.670410 
	C1073.800415,607.699280 1072.296021,603.176758 1072.272949,599.364563 
	C1072.006348,555.381226 1072.083984,511.395538 1072.162476,467.410675 
	C1072.166016,465.409485 1073.047241,463.409912 1073.519531,461.409607 
	C1075.275513,462.662323 1077.432251,463.593872 1078.729858,465.213654 
	C1153.095581,558.038879 1227.390015,650.921326 1301.909302,744.078491 
z"/>
<path fill="#FD4654" opacity="1.000000" stroke="none" 
	d="
M1387.093994,510.054230 
	C1399.386475,494.688019 1411.427490,479.575409 1423.587402,464.559143 
	C1424.702393,463.182159 1426.578247,462.421204 1428.100830,461.374207 
	C1428.643921,463.168274 1429.658081,464.961395 1429.661621,466.756470 
	C1429.749268,511.239197 1429.806152,555.722473 1429.576904,600.204224 
	C1429.559570,603.562012 1428.118286,607.483521 1426.062134,610.163513 
	C1415.722412,623.641052 1404.873413,636.726562 1394.396240,650.100830 
	C1391.331787,654.012634 1387.718018,655.641418 1382.816895,655.628296 
	C1348.163818,655.535583 1313.510254,655.603271 1278.857300,655.509827 
	C1277.062988,655.505005 1275.271240,654.495667 1273.478271,653.953918 
	C1274.237793,652.390747 1274.736694,650.619507 1275.794434,649.294495 
	C1312.788696,602.948303 1349.835571,556.644165 1387.093994,510.054230 
z"/>
<path fill="#FA4553" opacity="1.000000" stroke="none" 
	d="
M1251.130127,886.999878 
	C1251.130249,871.343445 1251.243164,856.185608 1251.054077,841.031555 
	C1251.004517,837.055237 1251.962280,835.457764 1256.289185,835.492859 
	C1279.272095,835.679138 1302.258057,835.664551 1325.241333,835.500916 
	C1329.203125,835.472717 1329.916626,836.790222 1330.391235,840.595093 
	C1332.050659,853.898376 1328.422974,864.888611 1318.720825,874.282898 
	C1314.095337,878.761658 1310.514160,884.319153 1306.066650,889.879700 
	C1317.296143,903.987732 1328.533569,918.105957 1339.770996,932.224121 
	C1339.666870,932.732666 1339.562744,933.241211 1339.458618,933.749756 
	C1335.293945,933.749756 1331.080444,933.345276 1326.975586,933.840698 
	C1320.110840,934.669250 1315.575073,932.180847 1311.445312,926.572693 
	C1303.058594,915.183777 1293.979126,904.298767 1285.009277,893.350281 
	C1282.914795,890.793701 1282.898926,889.054077 1284.994873,886.505188 
	C1292.821167,876.988037 1300.439087,867.299438 1308.117065,857.660828 
	C1309.100586,856.426086 1309.977539,855.106506 1311.263184,853.329712 
	C1297.177124,853.329712 1283.794556,853.329712 1269.957275,853.329712 
	C1269.868896,855.227539 1269.716064,856.995239 1269.714844,858.763062 
	C1269.698730,881.747559 1269.613037,904.732727 1269.785034,927.715942 
	C1269.817749,932.072205 1268.917236,933.955383 1264.024902,933.864929 
	C1251.134277,933.626465 1251.130127,933.851868 1251.130127,920.977417 
	C1251.130127,909.818237 1251.130127,898.659119 1251.130127,886.999878 
z"/>
<path fill="#FB4553" opacity="1.000000" stroke="none" 
	d="
M1223.132080,917.155029 
	C1207.950562,934.260132 1189.372192,940.246643 1167.926514,933.655457 
	C1147.509277,927.380249 1135.385620,912.710815 1132.243774,891.540222 
	C1128.827271,868.518616 1141.629028,846.414429 1162.802856,837.275391 
	C1183.806396,828.209900 1208.395996,834.171997 1222.968750,851.863525 
	C1237.701782,869.749573 1238.707520,894.850708 1225.452393,914.085876 
	C1224.792236,915.043884 1224.053589,915.947632 1223.132080,917.155029 
M1182.546021,850.720520 
	C1181.549927,850.780212 1180.549805,850.800354 1179.558472,850.905457 
	C1161.689331,852.801147 1148.211182,869.912354 1150.301270,888.036682 
	C1152.526489,907.331360 1168.850342,920.627075 1187.376953,918.234619 
	C1204.491089,916.024597 1216.751953,901.084656 1216.167480,883.153137 
	C1215.582764,865.213562 1201.925171,851.665161 1182.546021,850.720520 
z"/>
<path fill="#FA4553" opacity="1.000000" stroke="none" 
	d="
M1455.299561,867.510742 
	C1455.299683,880.054504 1455.299683,892.598267 1455.299683,905.142029 
	C1454.713501,905.338196 1454.127441,905.534424 1453.541260,905.730652 
	C1450.163940,901.537903 1447.082031,897.056763 1443.338745,893.221130 
	C1437.961792,887.711609 1436.054321,881.544495 1436.477661,873.847595 
	C1437.080566,862.882935 1436.792725,851.856873 1436.549683,840.864502 
	C1436.455933,836.623230 1438.101440,835.890564 1442.037842,835.408630 
	C1451.696167,834.226074 1457.854736,837.880005 1463.693115,845.678040 
	C1478.256348,865.129272 1493.846191,883.811829 1510.151855,902.688416 
	C1510.151855,901.005127 1510.151733,899.321777 1510.151733,897.638489 
	C1510.152222,878.642334 1510.250854,859.645203 1510.073364,840.650696 
	C1510.036377,836.692566 1511.278198,835.501099 1515.204468,835.495911 
	C1528.743530,835.478027 1528.743408,835.342957 1528.743286,848.678284 
	C1528.743286,875.006287 1528.630859,901.335266 1528.844849,927.661499 
	C1528.884277,932.511047 1527.308105,933.505920 1522.633057,933.958435 
	C1513.519897,934.840637 1507.708252,931.593872 1502.170410,924.240417 
	C1487.543945,904.818115 1471.973755,886.106567 1456.360107,866.744080 
	C1455.727295,866.754333 1455.513428,867.132507 1455.299561,867.510742 
z"/>
<path fill="#FA4553" opacity="1.000000" stroke="none" 
	d="
M989.779053,884.734741 
	C1001.425171,870.149353 1012.843567,855.839661 1024.279663,841.544250 
	C1028.449463,836.331970 1039.971680,833.207153 1045.978638,835.894226 
	C1046.926025,836.317993 1047.724609,838.219360 1047.728516,839.440247 
	C1047.824097,869.568115 1047.786865,899.696411 1047.829956,929.824524 
	C1047.833862,932.542603 1046.821777,933.909180 1044.030151,933.748596 
	C1043.532471,933.719971 1043.020630,933.680115 1042.533813,933.759277 
	C1033.039307,935.303955 1026.267700,932.071594 1020.855530,923.733215 
	C1015.370728,915.282898 1008.395386,907.799988 1001.697571,899.423950 
	C993.834534,909.267700 986.103149,918.568176 978.837341,928.219177 
	C975.704224,932.380737 972.263000,934.265503 967.053284,933.835754 
	C962.177734,933.433533 957.242920,933.749695 952.334229,933.749695 
	C952.128540,933.285461 951.922852,932.821289 951.717163,932.357056 
	C964.330933,916.576721 976.944641,900.796387 989.779053,884.734741 
M1013.971802,887.128662 
	C1018.689636,893.029297 1023.407471,898.929932 1028.776855,905.645447 
	C1028.776855,891.163513 1028.776855,877.906372 1028.776855,863.552856 
	C1023.215759,870.519714 1018.286621,876.555481 1013.580200,882.760193 
	C1012.964111,883.572449 1013.490845,885.251587 1013.971802,887.128662 
z"/>
<path fill="#FB4553" opacity="1.000000" stroke="none" 
	d="
M1388.284180,915.336914 
	C1384.524414,920.037720 1380.778931,924.312622 1377.518433,928.929932 
	C1374.936401,932.586609 1371.869141,933.927002 1367.401489,933.839600 
	C1354.991821,933.597046 1354.988525,933.771729 1354.988525,921.540161 
	C1354.988647,894.721436 1355.092041,867.901917 1354.887451,841.084778 
	C1354.853271,836.608887 1356.328613,835.855530 1360.528809,835.394409 
	C1369.961182,834.358826 1375.969360,837.766296 1381.825195,845.378235 
	C1403.350586,873.358459 1425.707275,900.699280 1447.741333,928.288452 
	C1448.838013,929.661743 1449.841431,931.109619 1451.626343,933.519226 
	C1443.561890,933.519226 1436.648071,933.745422 1429.770264,933.347900 
	C1428.203491,933.257385 1426.512085,931.212402 1425.302002,929.722656 
	C1417.326294,919.902649 1409.466187,909.988586 1401.037231,899.440430 
	C1396.714355,904.828979 1392.610962,909.943970 1388.284180,915.336914 
M1373.410522,888.495605 
	C1373.410522,893.888000 1373.410522,899.280396 1373.410522,904.672852 
	C1373.774048,904.756531 1374.137451,904.840210 1374.500977,904.923950 
	C1379.848389,898.238403 1385.195923,891.552917 1390.756104,884.601440 
	C1385.217896,877.670044 1379.854614,870.957642 1374.491455,864.245239 
	C1374.131226,864.412781 1373.770874,864.580383 1373.410645,864.747986 
	C1373.410645,872.330994 1373.410645,879.914001 1373.410522,888.495605 
z"/>
<path fill="#FC4654" opacity="1.000000" stroke="none" 
	d="
M908.306152,933.743896 
	C903.698303,934.354614 902.416565,932.567871 902.437073,928.429443 
	C902.581909,899.273865 902.578613,870.116882 902.438843,840.961243 
	C902.419495,836.918091 903.499023,835.457703 907.752686,835.491333 
	C920.980225,835.596252 920.978210,835.429382 920.982422,848.436768 
	C920.988098,866.097046 920.998352,883.757324 921.018127,901.417603 
	C921.018433,901.729065 921.162781,902.040344 921.461609,903.246643 
	C922.879639,901.634888 924.036499,900.422485 925.079407,899.119019 
	C940.793518,879.478271 956.565491,859.882812 972.125244,840.120361 
	C974.780518,836.747986 977.598633,835.262451 981.859314,835.513367 
	C987.123901,835.823486 992.420654,835.587585 998.841858,835.587585 
	C997.482605,837.691772 996.833801,838.914978 995.984741,839.978455 
	C972.081665,869.920776 948.125244,899.820801 924.290649,929.817505 
	C921.967773,932.740906 919.413391,934.074951 915.757446,933.778992 
	C913.440186,933.591370 911.095398,933.743896 908.306152,933.743896 
z"/>
<path fill="#FB4553" opacity="1.000000" stroke="none" 
	d="
M1587.452637,875.000610 
	C1587.472900,892.998291 1587.340698,910.498291 1587.615112,927.992004 
	C1587.689087,932.707275 1586.125244,933.927551 1581.600464,933.845520 
	C1569.105835,933.618958 1569.066895,933.805420 1569.038696,921.163269 
	C1568.992554,900.499268 1568.997925,879.835205 1568.981689,859.171143 
	C1568.980225,857.366333 1568.981445,855.561462 1568.981445,853.069336 
	C1561.489624,853.069336 1554.377686,852.834961 1547.291016,853.155029 
	C1542.857788,853.355164 1541.102295,852.232910 1541.205933,847.397339 
	C1541.458862,835.588318 1541.222168,835.583008 1553.149414,835.583191 
	C1569.813965,835.583496 1586.479248,835.658630 1603.142700,835.524170 
	C1606.642700,835.495850 1609.130981,836.530701 1611.209839,839.385925 
	C1614.301880,843.633057 1617.707031,847.652283 1621.875244,852.896118 
	C1609.631104,852.896118 1598.781616,852.896118 1587.452637,852.896118 
	C1587.452637,860.574829 1587.452637,867.537720 1587.452637,875.000610 
z"/>
<path fill="#FC4654" opacity="1.000000" stroke="none" 
	d="
M1127.011475,922.101440 
	C1121.663696,932.119019 1113.614868,934.973328 1102.884277,933.933838 
	C1093.485718,933.023376 1083.928833,933.682739 1074.443115,933.776733 
	C1071.509521,933.805847 1069.812134,933.271179 1069.824585,929.715820 
	C1069.931274,899.259033 1069.894409,868.801880 1069.918457,838.344788 
	C1069.918945,837.699890 1070.134277,837.055176 1070.390503,835.619934 
	C1075.436523,835.619934 1080.553833,835.357300 1085.599609,835.840759 
	C1086.612793,835.937927 1088.096924,838.866333 1088.108765,840.498413 
	C1088.273926,863.464966 1088.221558,886.432983 1088.222168,909.400696 
	C1088.222290,911.385742 1088.222290,913.370728 1088.222290,916.092407 
	C1102.353027,916.092407 1116.174561,916.092407 1131.374390,916.092407 
	C1129.440186,918.762085 1128.331543,920.292236 1127.011475,922.101440 
z"/>
<path fill="#FA4553" opacity="1.000000" stroke="none" 
	d="
M1611.068115,931.146729 
	C1611.061523,928.827332 1611.061523,926.868286 1611.061523,924.909241 
	C1611.464600,924.746582 1611.867554,924.583923 1612.270630,924.421265 
	C1613.468018,926.288757 1614.665405,928.156189 1616.141235,930.457947 
	C1617.368774,928.195251 1618.381592,926.328247 1619.394287,924.461182 
	C1619.746338,924.567993 1620.098389,924.674805 1620.450439,924.781677 
	C1620.450439,927.311523 1620.450439,929.841370 1620.450439,932.814697 
	C1619.760132,931.977905 1619.151367,931.240112 1618.436646,930.373840 
	C1617.672485,931.211426 1616.925781,932.029724 1616.024536,933.017517 
	C1615.142822,932.086060 1614.302246,931.197937 1613.957275,930.833557 
	C1612.649658,931.139038 1611.862183,931.322998 1611.068115,931.146729 
z"/>
<path fill="#FA4553" opacity="1.000000" stroke="none" 
	d="
M1606.562012,924.337891 
	C1607.334717,924.412903 1607.806763,924.494385 1608.278564,924.575867 
	C1607.465942,927.247498 1606.653442,929.919128 1605.766357,932.835754 
	C1605.239868,929.969788 1604.753296,927.321228 1604.206543,924.344421 
	C1604.395142,924.344421 1605.328247,924.344421 1606.562012,924.337891 
z"/>
<path fill="#111822" opacity="1.000000" stroke="none" 
	d="
M1183.008057,850.718872 
	C1201.925171,851.665161 1215.582764,865.213562 1216.167480,883.153137 
	C1216.751953,901.084656 1204.491089,916.024597 1187.376953,918.234619 
	C1168.850342,920.627075 1152.526489,907.331360 1150.301270,888.036682 
	C1148.211182,869.912354 1161.689331,852.801147 1179.558472,850.905457 
	C1180.549805,850.800354 1181.549927,850.780212 1183.008057,850.718872 
z"/>
<path fill="#0F1822" opacity="1.000000" stroke="none" 
	d="
M1455.521606,867.342773 
	C1455.513428,867.132507 1455.727295,866.754333 1456.055786,866.596802 
	C1456.028198,866.936584 1455.885864,867.055725 1455.521606,867.342773 
z"/>
<path fill="#111822" opacity="1.000000" stroke="none" 
	d="
M1013.729980,886.828918 
	C1013.490845,885.251587 1012.964111,883.572449 1013.580200,882.760193 
	C1018.286621,876.555481 1023.215759,870.519714 1028.776855,863.552856 
	C1028.776855,877.906372 1028.776855,891.163513 1028.776855,905.645447 
	C1023.407471,898.929932 1018.689636,893.029297 1013.729980,886.828918 
z"/>
<path fill="#111822" opacity="1.000000" stroke="none" 
	d="
M1373.410645,887.996338 
	C1373.410645,879.914001 1373.410645,872.330994 1373.410645,864.747986 
	C1373.770874,864.580383 1374.131226,864.412781 1374.491455,864.245239 
	C1379.854614,870.957642 1385.217896,877.670044 1390.756104,884.601440 
	C1385.195923,891.552917 1379.848389,898.238403 1374.500977,904.923950 
	C1374.137451,904.840210 1373.774048,904.756531 1373.410522,904.672852 
	C1373.410522,899.280396 1373.410522,893.888000 1373.410645,887.996338 
z"/>
</svg>